<?xml version="1.0" encoding="iso-8859-1"?>
<svg version="1.1" id="Layer_1" xmlns="http://www.w3.org/2000/svg" xmlns:xlink="http://www.w3.org/1999/xlink" x="0px" y="0px"
	 viewBox="0 0 512 512" style="enable-background:new 0 0 512 512;" xml:space="preserve">
<path style="fill:#F1543F;" d="M414.47,279.964H166.064c-9.22,0-16.696-7.475-16.696-16.696v-64.4
	c0-9.22,7.475-16.696,16.696-16.696h107.508v-47.705c0-9.22,7.475-16.696,16.696-16.696H414.47
	c12.222,0,20.319,12.744,15.103,23.814l-26.995,57.283l26.995,57.284C434.784,267.207,426.706,279.964,414.47,279.964z"/>
<path style="fill:#E03E34;" d="M306.963,172.547h-33.391v9.624H166.064c-9.22,0-16.696,7.475-16.696,16.696v64.4
	c0,6.8,4.07,12.638,9.903,15.242l127.392-54.294C310.102,214.226,306.963,191.762,306.963,172.547z"/>
<path style="fill:#40596B;" d="M97.518,512c-9.22,0-16.696-7.475-16.696-16.696V16.696C80.822,7.475,88.298,0,97.518,0
	s16.696,7.475,16.696,16.696v478.609C114.214,504.525,106.738,512,97.518,512z"/>
<path style="fill:#FF7058;" d="M290.267,215.564H80.817V53.356h209.45c9.22,0,16.696,7.475,16.696,16.696v128.817
	C306.963,208.089,299.488,215.564,290.267,215.564z"/>
<g>
</g>
<g>
</g>
<g>
</g>
<g>
</g>
<g>
</g>
<g>
</g>
<g>
</g>
<g>
</g>
<g>
</g>
<g>
</g>
<g>
</g>
<g>
</g>
<g>
</g>
<g>
</g>
<g>
</g>
</svg>
